<?xml version="1.0" encoding="UTF-8"?>
<svg id="Layer_1" xmlns="http://www.w3.org/2000/svg" version="1.1" viewBox="0 0 200 50">
  <!-- Generator: Adobe Illustrator 30.0.0, SVG Export Plug-In . SVG Version: 2.1.1 Build 123)  -->
  <defs>
    <style>
      .st0 {
        fill: #fff;
      }

      .st1 {
        fill: #f48325;
      }
    </style>
  </defs>
  <path d="M58.59,44.82h-30.55c-1.32,0-2.56-.28-3.68-1.09-1.24-.89-1.98-2.13-2.26-3.64-.25-1.24-.05-2.43.23-3.64.89-3.62,1.72-7.21,2.61-10.83.91-3.8,1.83-7.59,2.74-11.36.3-1.24.58-2.5.94-3.72.35-1.24.94-2.35,1.8-3.31.89-.99,1.98-1.62,3.22-1.95.71-.18,1.42-.28,2.15-.28h61.24c1.42,0,2.74.4,3.85,1.34,1.01.86,1.62,1.95,1.9,3.26.25,1.24.1,2.45-.18,3.67-.74,3.14-1.47,6.25-2.21,9.39-.76,3.26-1.52,6.53-2.28,9.77-.51,2.13-.99,4.23-1.5,6.35-.3,1.24-.81,2.4-1.6,3.42-.94,1.24-2.15,2-3.62,2.38-.79.2-1.6.25-2.41.25h-30.34"/>
  <path d="M69.54,33.18c-.18.83-.35,1.67-.53,2.5h-3.75c.18-.83.35-1.67.53-2.5h3.75Z"/>
  <path d="M38.06,35.69c.18-.86.35-1.67.53-2.5h3.75c-.08.3-.13.61-.2.91-.1.48-.2.99-.3,1.47,0,.05-.1.13-.15.13h-3.62Z"/>
  <path d="M79.61,35.69c.18-.83.35-1.67.53-2.5h3.75c-.08.4-.15.81-.25,1.19-.08.38-.15.76-.25,1.16,0,.05-.08.15-.13.15h-3.65Z"/>
  <path d="M178.4,8.63c-.28-1.32-.89-2.43-1.9-3.29-1.11-.96-2.43-1.34-3.85-1.34-20.51,0-17.91,0-21.76,0h-36.05c-.74,0-1.44.1-2.15.28-1.27.33-2.36.96-3.25,1.97-.86.96-1.44,2.1-1.8,3.34-.36,1.24-.63,2.48-.94,3.74-.91,3.8-1.82,7.62-2.74,11.41-.86,3.62-1.72,7.26-2.61,10.88-.3,1.21-.48,2.4-.23,3.64.3,1.52,1.04,2.76,2.28,3.67,1.12.81,2.36,1.09,3.7,1.09h50.12c10.16,0-2.8,0,7.36,0,.81,0,1.62-.05,2.43-.25,1.47-.38,2.69-1.14,3.62-2.38.79-1.04,1.29-2.18,1.6-3.44.53-2.13,1.01-4.25,1.52-6.38.76-3.26,1.55-6.55,2.31-9.82.74-3.14,1.47-6.3,2.23-9.44.28-1.21.46-2.43.18-3.67l-.08-.03Z"/>
  <path class="st0" d="M119.43,11.02l-.61,2.9h3.75c.27,0,.47.06.62.19.15.12.22.28.22.5,0,.07,0,.13-.02.16v.03c-.15.6-.55.87-1.22.82h-3.71l-.72,3.38c-.1.67-.46,1.01-1.1,1.01h-.15c-.22,0-.42-.07-.58-.22-.16-.16-.24-.35-.24-.56,0-.12.01-.25.05-.4l1.79-8.48c.12-.73.54-1.06,1.26-1.01h4.99c.58,0,.87.23.87.7,0,.06,0,.11-.02.14l-.02.03c-.13.6-.53.87-1.2.82h-3.98Z"/>
  <path class="st0" d="M126.21,18.21h3.89c.61,0,.91.25.91.74,0,.07,0,.13-.02.16l-.02.06c-.14.61-.54.89-1.22.83h-4.77c-.31,0-.55-.07-.74-.21-.18-.14-.27-.33-.27-.56,0-.13.02-.27.05-.42l1.79-8.48c.1-.67.46-1.01,1.1-1.01h.14c.22,0,.42.08.58.24.16.15.24.33.24.54,0,.13-.02.26-.05.4l-1.63,7.7Z"/>
  <path class="st0" d="M135.89,10.51l-1.79,8.48c-.1.67-.46,1.01-1.1,1.01h-.14c-.22,0-.42-.07-.58-.22-.16-.16-.24-.35-.24-.56,0-.12.02-.25.05-.4l1.79-8.48c.1-.67.46-1.01,1.1-1.01h.14c.21,0,.4.08.56.24.17.15.26.33.26.53,0,.14-.02.28-.05.42Z"/>
  <path class="st0" d="M143.51,15.86h-1.7c-.62,0-.93-.25-.93-.75s.31-.77.93-.77h2.82c.69,0,1.04.28,1.04.85,0,.22-.12.81-.35,1.74-.18.73-.36,1.26-.54,1.6-.18.34-.44.63-.78.88-.4.28-.87.46-1.42.56-.56.09-1.45.13-2.67.13-.83,0-1.47-.04-1.9-.13-.43-.09-.78-.23-1.07-.45-.6-.45-.9-1.13-.9-2.03,0-.3.09-.92.27-1.86.18-.95.38-1.87.61-2.75.37-1.43.96-2.42,1.76-2.96.44-.28.92-.46,1.44-.54.52-.1,1.41-.14,2.66-.14s2.03.08,2.45.24c.8.29,1.2.88,1.2,1.78s-.36,1.3-1.09,1.3h-.11c-.22-.01-.41-.08-.56-.21-.14-.13-.2-.28-.19-.46-.02-.29-.04-.47-.06-.54-.02-.07-.09-.14-.19-.19-.21-.12-1-.18-2.35-.18-1,0-1.7.15-2.08.46-.37.3-.67.95-.9,1.95-.49,2.13-.74,3.43-.74,3.9s.16.75.48.9c.33.14.99.21,1.98.21,1.04,0,1.74-.15,2.1-.46.36-.31.63-1,.82-2.06Z"/>
  <path class="st0" d="M153.92,15.44h-4.94l-.75,3.55c-.1.67-.46,1.01-1.1,1.01h-.14c-.22,0-.42-.07-.58-.22-.16-.16-.24-.35-.24-.56,0-.12.02-.25.05-.4l1.79-8.46c.1-.68.46-1.02,1.1-1.02h.14c.21,0,.4.08.56.24.17.15.26.33.26.54,0,.13-.02.26-.05.4l-.67,3.18h4.94l.72-3.36c.1-.67.46-1.01,1.1-1.01h.13c.22,0,.42.08.58.24.17.15.26.33.26.54,0,.13-.02.26-.05.4l-1.81,8.48c-.1.67-.46,1.01-1.1,1.01h-.13c-.22,0-.42-.07-.59-.22-.16-.16-.24-.35-.24-.56,0-.12.02-.25.05-.4l.72-3.38Z"/>
  <path class="st0" d="M162.5,11.12l-1.68,7.87c-.1.67-.46,1.01-1.09,1.01h-.14c-.22,0-.42-.07-.58-.22-.16-.16-.24-.35-.24-.56,0-.07.01-.21.03-.4l1.65-7.7h-2c-.61,0-.91-.25-.91-.74,0-.07,0-.13.02-.16l.02-.06c.14-.61.54-.89,1.22-.83h6.16c.61,0,.91.25.91.74,0,.07,0,.13-.02.16l-.02.08c-.13.6-.53.87-1.22.82h-2.11Z"/>
  <path class="st0" d="M112.59,27.33h4.19c1,0,1.71.14,2.13.42.54.35.82.86.82,1.54,0,.52-.1,1.13-.29,1.82-.18.68-.39,1.19-.62,1.52-.18.26-.4.45-.66.58-.24.12-.68.24-1.31.37.54.06.93.2,1.17.4.29.28.43.62.43,1.04,0,.18-.03.41-.08.67l-.29,1.31c-.1.67-.46,1.01-1.1,1.01h-.14c-.22,0-.42-.07-.59-.22-.16-.16-.24-.35-.24-.56,0-.12.02-.25.05-.4l.16-.74c.06-.3.1-.54.1-.72,0-.33-.1-.57-.3-.7-.2-.14-.55-.21-1.04-.21h-2.88l-.53,2.54c-.1.67-.46,1.01-1.1,1.01h-.14c-.22,0-.42-.07-.58-.22-.16-.16-.24-.35-.24-.56,0-.12.02-.25.05-.4l1.79-8.48c.12-.73.54-1.06,1.26-1.01ZM112.46,32.7h2.86c.91,0,1.51-.3,1.81-.9.09-.16.18-.46.27-.91.11-.45.16-.78.16-1.01,0-.3-.1-.51-.3-.62-.19-.12-.54-.18-1.04-.18h-2.99l-.77,3.62Z"/>
  <path class="st0" d="M123.19,29.02l-.58,2.77h4c.61,0,.91.25.91.75s-.3.75-.91.75h-4.32l-.64,3.01h4.26c.58,0,.86.23.86.7,0,.07,0,.12-.02.14v.03c-.15.6-.55.87-1.22.82h-5.09c-.31,0-.55-.07-.74-.21-.18-.14-.27-.33-.27-.56,0-.13.02-.27.05-.42l1.79-8.48c.11-.71.53-1.05,1.26-1.01h5.23c.57,0,.85.23.85.7,0,.06,0,.11-.02.14v.03c-.13.6-.53.87-1.22.82h-4.21Z"/>
  <path class="st0" d="M131.14,28.4l.59,4.98c.1.93.17,1.93.22,2.99.79-1.58,1.29-2.58,1.5-2.99l2.78-5.15c.16-.33.34-.56.53-.69.2-.14.47-.21.8-.21h.22c.17,0,.32.06.45.19.13.12.19.26.19.43,0,.13-.05.28-.14.45l-4.66,8.7c-.16.34-.35.58-.58.72-.22.14-.53.2-.91.18h-1.01c-.36.02-.65-.06-.86-.24-.2-.19-.32-.47-.34-.85l-.9-8.4c-.01-.05-.02-.14-.02-.26,0-.28.08-.5.24-.67.17-.17.39-.26.66-.26h.16c.32,0,.57.1.75.29.18.18.28.44.3.78Z"/>
  <path class="st0" d="M141.01,28.51l-1.79,8.48c-.1.67-.46,1.01-1.1,1.01h-.14c-.22,0-.42-.07-.58-.22-.16-.16-.24-.35-.24-.56,0-.12.02-.25.05-.4l1.79-8.48c.1-.67.46-1.01,1.1-1.01h.14c.21,0,.4.08.56.24.17.15.26.33.26.53,0,.14-.02.28-.05.42Z"/>
  <path class="st0" d="M144.63,29.02l-.58,2.77h4c.61,0,.91.25.91.75s-.3.75-.91.75h-4.32l-.64,3.01h4.26c.58,0,.86.23.86.7,0,.07,0,.12-.02.14v.03c-.15.6-.55.87-1.22.82h-5.09c-.31,0-.55-.07-.74-.21-.18-.14-.27-.33-.27-.56,0-.13.02-.27.05-.42l1.79-8.48c.11-.71.53-1.05,1.26-1.01h5.23c.57,0,.85.23.85.7,0,.06,0,.11-.02.14v.03c-.13.6-.53.87-1.22.82h-4.21Z"/>
  <path class="st0" d="M158.16,36.88l-.26-4.35c-.03-.87-.05-1.8-.05-2.78-.6,1.28-1.03,2.21-1.3,2.78l-2.24,4.58c-.15.34-.34.58-.56.72-.21.14-.51.2-.88.18h-.86c-.37.01-.66-.08-.86-.27-.2-.2-.3-.49-.29-.86l-.4-8.35v-.14c0-.32.08-.57.24-.75.17-.19.41-.29.7-.29h.11c.32,0,.57.11.75.32.18.2.27.47.26.82l.24,4.72c.01.2.02.86.02,1.98v1.25c.21-.45.44-.94.69-1.49.36-.78.64-1.36.83-1.74l2.43-4.96c.15-.33.33-.57.53-.7.2-.14.48-.2.82-.19h.48c.34,0,.6.1.78.3.19.19.29.46.29.82l.29,4.74c.02.37.04.99.06,1.86.03.66.05,1.12.06,1.38.64-1.55,1.11-2.62,1.41-3.23l2.38-4.94c.24-.61.66-.91,1.26-.91h.21c.18,0,.34.06.46.19.13.13.19.28.19.45,0,.09-.04.23-.13.43l-4.19,8.69c-.14.35-.32.6-.54.74-.21.14-.51.2-.88.18h-.9c-.78.03-1.17-.34-1.17-1.12Z"/>
  <g>
    <g>
      <path class="st1" d="M49.41,9.2h4.56c.28,0,.44.23.35.51l-.17.56c-.09.28-.39.51-.67.51h-4.56c-.28,0-.44-.23-.35-.51l.17-.56c.09-.28.38-.51.67-.51"/>
      <path class="st1" d="M48.63,11.41h4.61c.28,0,.44.23.35.51l-.17.56c-.08.28-.39.51-.67.51h-4.61c-.28,0-.44-.23-.35-.51l.17-.56c.09-.28.39-.51.67-.51"/>
      <path class="st0" d="M77.96,26.25c.16,0,.31.03.45.09.14.06.28.15.39.26s.2.24.26.39c.06.14.09.29.09.45s-.03.31-.09.45c-.06.15-.15.28-.26.39s-.24.2-.39.26c-.14.06-.29.09-.45.09s-.31-.03-.45-.09c-.15-.06-.28-.15-.39-.26s-.2-.24-.26-.39c-.06-.14-.09-.29-.09-.45s.03-.31.09-.45c.06-.14.15-.28.26-.39s.24-.2.39-.26c.14-.06.29-.09.45-.09M77.43,28.08v-1.29h.59c.06,0,.11,0,.15,0s.08.02.11.03c.03.01.06.03.09.05.02.02.05.05.07.08.04.06.06.13.06.2,0,.05,0,.09-.02.13-.02.04-.04.08-.07.11-.03.03-.07.06-.12.08-.03.01-.06.02-.1.03h0s.03.03.05.04c.03.02.05.05.07.08.02.03.05.06.07.1l.24.38h-.26c-.08-.13-.16-.25-.24-.37l-.05-.07-.04-.05-.04-.03-.03-.02h-.03s-.04-.02-.04-.02h-.23s0,.56,0,.56h-.21v-.02h0ZM77.64,27.35h.34s.07,0,.1,0c.03,0,.05,0,.07-.02.02,0,.04-.02.05-.03.01-.01.03-.03.04-.04.01-.02.02-.03.02-.05,0-.02,0-.03,0-.05,0-.03,0-.05-.01-.07,0-.02-.02-.04-.04-.06-.02-.02-.04-.03-.08-.04-.03,0-.07-.01-.12-.01h-.38v.38h0ZM78.66,26.74c-.09-.09-.2-.16-.32-.21-.12-.05-.24-.07-.38-.07s-.26.03-.38.07c-.12.05-.23.12-.32.21-.18.18-.29.43-.29.7,0,.13.03.26.07.38.05.12.12.23.21.32.09.09.2.16.32.21.12.05.24.08.38.08s.26-.03.38-.08c.12-.05.23-.12.32-.21.18-.18.29-.43.29-.7,0-.13-.03-.26-.07-.38-.05-.12-.12-.23-.21-.32h0ZM79.74,13.96l-3.19,9.76c-.61,1.87-1.29,4.9-6.17,4.9h-22.92c-1.76,0-4.74-1.04-3.42-4.9l2.64-7.76c.16-.46.58-1.65,1.87-1.65h2.59c1.05.05,1.44.37,1.09,1.67l-2.85,8.46c-.46,1.85.84,2.67,2.53,2.67h17.9c2.13,0,3.37-1.44,3.86-3.29l3.02-9.03c1-2.97-.58-4.07-3.36-4.07h-14.09c-1.6,0-4.98-1.52-3.13-1.53,5.62,0,12.61,0,18.24,0,5.55,0,5.95,3.03,5.38,4.76h0ZM71.87,23.73c-.51,1.75-1.4,2.68-3.57,2.69h-5.23c-1.51,0-1.94-.96-1.68-1.87l2.79-8.31c.18-.53-.71-.58-.9.03l-2.78,8.2c-.47,1.54-1.29,1.9-2.49,1.94h-5.36c-1.49,0-1.59-1.22-1.28-2.4l2.87-8.48c.37-1.09.8-1.22,1.47-1.22h.5c1.14,0,1.05.63.8,1.4l-2.62,7.83c-.17.52.06.93.54.93h1.25c.65,0,.88-.34,1.04-.8l2.64-7.76c.49-1.44,1.32-1.65,2.18-1.65h2.97c1.41,0,1.33,1.01,1.11,1.65l-2.55,7.51c-.2.59.06,1.03.63,1.04l1.1.02c.46,0,.82-.15,1.07-.87l2.23-6.52c.69-2.02,1.05-4.15-1.71-4.15h-5.62c-1.6,0-4.92-1.53-3.13-1.53h14.41c2.01,0,3.08,1.27,2.47,3.01l-3.13,9.31Z"/>
    </g>
    <path class="st0" d="M84.46,33.47c.06,0,.11.01.16.03.05.02.1.05.14.09.04.04.07.09.09.14.02.05.03.11.03.16s-.01.11-.03.16c-.02.05-.05.1-.09.14-.04.04-.09.07-.14.09-.05.02-.1.03-.16.03s-.11-.01-.16-.03c-.05-.02-.1-.05-.14-.09-.04-.04-.07-.09-.09-.14-.02-.05-.03-.11-.03-.16s.01-.11.03-.16c.02-.05.05-.1.09-.14.04-.04.09-.07.14-.09.05-.02.1-.03.16-.03M84.27,34.12v-.46h.21s.04,0,.05,0c.02,0,.03,0,.04,0,.01,0,.02.01.03.02,0,0,.02.02.02.03.01.02.02.05.02.07,0,.02,0,.03,0,.05s-.01.03-.03.04c-.01.01-.03.02-.04.03-.01,0-.02,0-.04.01h0s.01,0,.02.01c0,0,.02.02.03.03,0,.01.02.02.02.03l.09.14h-.09s-.06-.09-.09-.13l-.02-.03-.02-.02h-.01s-.01-.02-.01-.02h-.01s-.01,0-.01,0h-.08s0,.2,0,.2h-.08ZM84.34,33.86h.12s.03,0,.04,0c0,0,.02,0,.03,0,0,0,.01,0,.02,0,0,0,0,0,.01-.01,0,0,0-.01,0-.02,0,0,0-.01,0-.02,0,0,0-.02,0-.03,0,0,0-.01-.02-.02,0,0-.02-.01-.03-.01-.01,0-.03,0-.04,0h-.14v.14ZM84.71,33.64s-.07-.06-.11-.08c-.04-.02-.09-.03-.14-.03s-.09,0-.14.03c-.04.02-.08.04-.11.08-.06.06-.1.15-.1.25,0,.05,0,.09.03.14.02.04.04.08.08.11.03.03.07.06.11.08.04.02.09.03.14.03s.09,0,.14-.03c.04-.02.08-.04.11-.08.06-.06.1-.15.1-.25,0-.05,0-.09-.03-.14-.02-.04-.04-.08-.08-.11h0ZM38.98,39.22h.97c.12,0,.21-.04.2-.22v-4.96c0-.07-.03-.14-.11-.14h-1.14c-.08,0-.13.06-.13.14v4.96c0,.16.04.22.21.22M41.78,39.22h.86c.15,0,.22-.06.22-.26v-3.06h.01c.57,1.01,1.13,2.03,1.7,3.04.11.21.24.27.46.27h.76c.22,0,.35-.07.36-.38v-4.61c0-.29-.16-.33-.34-.33h-.61c-.24,0-.37.12-.36.35v2.93h-.01l-1.71-3.04c-.07-.13-.1-.24-.37-.24h-.9c-.2,0-.29.12-.29.28v4.79c0,.16.05.25.22.25M47.97,39.22h1.82c1.62,0,2.61-.94,2.61-2.68,0-1.65-.98-2.64-2.61-2.64h-1.76c-.39,0-.53.2-.53.48,0,1.49,0,2.9,0,4.39,0,.43.13.45.46.45M48.89,35.1h.66c.95,0,1.47.47,1.47,1.44,0,1.07-.42,1.47-1.47,1.5h-.66v-2.94ZM53.52,36.57c0,1.54.95,2.77,2.62,2.77s2.62-1.23,2.62-2.77-.95-2.77-2.62-2.77-2.62,1.23-2.62,2.77M54.91,36.57c0-.79.34-1.58,1.24-1.58s1.24.79,1.24,1.58-.34,1.58-1.24,1.58-1.24-.79-1.24-1.58M60.91,39.22h.18c.13,0,.23-.06.26-.21l1.28-4.55h.01c.43,1.52.86,3.03,1.29,4.55.04.14.13.23.29.21h.11c.12.02.21-.05.25-.22l1.37-4.95c.02-.09.01-.15-.11-.15h-.18c-.13,0-.19.04-.21.14l-1.18,4.52h-.01l-1.24-4.44c-.06-.21-.13-.21-.31-.22-.02,0-.06,0-.09,0-.19,0-.29,0-.35.21l-1.24,4.45h-.02l-1.16-4.48c-.05-.17-.1-.17-.21-.17h-.19c-.2,0-.14.18-.13.21.45,1.64.91,3.28,1.36,4.92.04.14.12.2.23.19h0ZM67.08,39.22h.13c.11,0,.19,0,.19-.17v-5.01c0-.1-.02-.14-.14-.14h-.22c-.06,0-.15.02-.15.14v5c0,.15.05.18.19.18M68.77,39.22h.2c.13,0,.15-.05.15-.2v-4.3h.01c.97,1.41,1.99,2.89,2.96,4.29.13.18.17.2.38.2h.1c.16,0,.23-.07.23-.24v-4.94c0-.1-.02-.14-.14-.14h-.2c-.12,0-.16.05-.16.14v4.36h-.02c-.99-1.44-1.99-2.89-2.98-4.33-.07-.12-.16-.17-.29-.17h-.17c-.19,0-.22.01-.22.23v4.86c0,.15.02.23.16.23M78.63,36.52h-1.94c-.1,0-.15.03-.15.13,0,.06,0,.13,0,.19,0,.09.04.12.14.12h1.67c.02,1.12-.66,1.95-1.84,1.95-1.41,0-2-1.18-2-2.34s.6-2.34,2-2.34c.87,0,1.47.54,1.65,1.08.07.19.07.26.24.26h.17c.15,0,.16-.07.1-.27-.3-.98-1.13-1.5-2.16-1.5-1.68,0-2.51,1.32-2.51,2.77s.83,2.77,2.51,2.77c.77,0,1.48-.32,1.84-1.08h.02c0,.26,0,.54,0,.8,0,.12.04.17.15.17h.15c.09,0,.13-.04.13-.18v-2.33c0-.12-.08-.2-.17-.2h0ZM79.91,37.62c0,1.2.91,1.72,2.13,1.72,1.88,0,2.03-1.15,2.03-1.52,0-.87-.63-1.2-1.38-1.4l-1.3-.32c-.43-.1-.8-.31-.8-.81,0-.79.64-1.06,1.33-1.06s1.28.35,1.43,1.01c.03.14.01.21.18.21h.21c.07,0,.15-.03.13-.17-.08-.98-.97-1.48-1.96-1.48-1.5,0-1.83.98-1.83,1.5,0,.83.57,1.12,1.2,1.28l1.18.29c.49.12,1.09.36,1.09.96,0,.77-.85,1.08-1.41,1.08-.94,0-1.71-.31-1.74-1.33,0-.09-.06-.1-.13-.1h-.2c-.16,0-.18.03-.18.15h0Z"/>
  </g>
</svg>